<svg width="16" height="16" viewBox="0 0 16 16" fill="none" xmlns="http://www.w3.org/2000/svg">
<rect width="16" height="16" rx="2" fill="#E42575"/>
<path d="M10.295 6.27791L10.9807 7.08357C11.0592 7.17406 11.1288 7.2485 11.157 7.29082C11.362 7.49462 11.477 7.77006 11.4769 8.05707C11.4576 8.39568 11.2369 8.62629 11.0326 8.87295L10.5527 9.43633L10.3024 9.72823C10.2935 9.7383 10.2877 9.75074 10.2858 9.76401C10.2839 9.77729 10.286 9.79081 10.2918 9.80292C10.2977 9.81503 10.307 9.82519 10.3186 9.83215C10.3302 9.83911 10.3436 9.84256 10.3572 9.84208H12.8586C13.2407 9.84208 13.722 10.1632 13.6939 10.6507C13.6931 10.8722 13.6035 11.0845 13.4445 11.2412C13.2855 11.3978 13.0701 11.4862 12.8453 11.487H8.92808C8.67039 11.487 7.97728 11.5147 7.78327 10.9236C7.74201 10.8001 7.73637 10.6677 7.76698 10.5412C7.82337 10.3541 7.91259 10.1783 8.0306 10.0216C8.22757 9.72969 8.44083 9.43779 8.65113 9.15464C8.92215 8.78392 9.20058 8.42487 9.47456 8.04686C9.48429 8.03455 9.48957 8.0194 9.48957 8.0038C9.48957 7.9882 9.48429 7.97305 9.47456 7.96074L8.47934 6.79312C8.47285 6.78466 8.46446 6.77779 8.45482 6.77306C8.44518 6.76834 8.43457 6.76588 8.4238 6.76588C8.41304 6.76588 8.40242 6.76834 8.39278 6.77306C8.38315 6.77779 8.37475 6.78466 8.36826 6.79312C8.10169 7.14779 6.93466 8.71824 6.68586 9.03642C6.43705 9.35459 5.82392 9.37211 5.48477 9.03642L3.92825 7.49661C3.91831 7.48678 3.90563 7.48008 3.89181 7.47736C3.878 7.47465 3.86368 7.47603 3.85067 7.48135C3.83766 7.48667 3.82654 7.49567 3.81873 7.50723C3.81093 7.51878 3.80678 7.53236 3.80681 7.54624V10.5076C3.81047 10.7178 3.74733 10.9238 3.62622 11.0968C3.50512 11.2698 3.33212 11.4011 3.13148 11.4724C3.00327 11.5163 2.86625 11.5295 2.73185 11.5107C2.59745 11.4919 2.46956 11.4417 2.35884 11.3642C2.24812 11.2868 2.15779 11.1845 2.09537 11.0657C2.03295 10.9469 2.00025 10.8151 2 10.6813V5.35695C2.00892 5.16507 2.07898 4.98085 2.20021 4.83045C2.32145 4.68005 2.4877 4.57114 2.67533 4.51918C2.83628 4.47692 3.00571 4.47734 3.16644 4.5204C3.32717 4.56346 3.47349 4.64763 3.59059 4.76438L5.98387 7.1259C5.99103 7.13307 5.9997 7.1386 6.00928 7.1421C6.01885 7.1456 6.02909 7.14698 6.03927 7.14615C6.04944 7.14531 6.05931 7.14228 6.06816 7.13726C6.07701 7.13225 6.08464 7.12538 6.0905 7.11714L7.79068 4.79795C7.86924 4.7038 7.96775 4.62771 8.07929 4.57502C8.19083 4.52233 8.31271 4.4943 8.43639 4.49291H12.8586C12.9797 4.4931 13.0992 4.51876 13.2094 4.56817C13.3195 4.61758 13.4177 4.6896 13.4974 4.77941C13.577 4.86922 13.6362 4.97476 13.6712 5.08895C13.7061 5.20315 13.7159 5.32338 13.6998 5.4416C13.6687 5.64668 13.5631 5.83365 13.4027 5.96785C13.2423 6.10205 13.0379 6.17436 12.8275 6.17136H10.3513C10.3389 6.17166 10.3267 6.17524 10.3162 6.18173C10.3056 6.18822 10.297 6.19739 10.2913 6.20827C10.2855 6.21915 10.2828 6.23135 10.2835 6.2436C10.2842 6.25584 10.2881 6.26769 10.295 6.27791Z" fill="#F5F3F7"/>
</svg>
